<svg width="202" height="35" viewBox="0 0 202 35" fill="none" xmlns="http://www.w3.org/2000/svg">
<path d="M136.539 7.2764H143.653C145.891 7.2764 147.769 7.70323 149.287 8.55688C150.823 9.41053 151.971 10.5867 152.73 12.0853C153.489 13.5839 153.868 15.3102 153.868 17.2641C153.868 19.1991 153.489 20.9158 152.73 22.4145C151.971 23.9131 150.823 25.0892 149.287 25.9429C147.769 26.7776 145.891 27.1949 143.653 27.1949H136.539V7.2764ZM143.169 23.6096C145.408 23.6096 147.058 23.0405 148.12 21.9023C149.202 20.7451 149.742 19.1991 149.742 17.2641C149.742 15.3292 149.202 13.7831 148.12 12.6259C147.058 11.4498 145.408 10.8617 143.169 10.8617H140.523V23.6096H143.169Z" fill="url(#paint0_linear_1954_65)"/>
<path d="M155.706 12.3983H159.434V15.2154C159.699 14.1341 160.212 13.3184 160.97 12.7682C161.748 12.2181 162.763 11.981 164.015 12.0568V15.6706H163.474C162.336 15.6706 161.397 16.0311 160.657 16.7519C159.918 17.4538 159.548 18.4118 159.548 19.6259V27.1949H155.706V12.3983Z" fill="url(#paint1_linear_1954_65)"/>
<path d="M165.293 12.3983H169.135V27.1949H165.293V12.3983ZM164.895 8.89834C164.895 8.27233 165.113 7.74117 165.549 7.30486C166.004 6.86855 166.555 6.65039 167.2 6.65039C167.864 6.65039 168.414 6.86855 168.85 7.30486C169.286 7.74117 169.504 8.27233 169.504 8.89834C169.504 9.54332 169.286 10.084 168.85 10.5203C168.414 10.9566 167.864 11.1747 167.2 11.1747C166.555 11.1747 166.004 10.9566 165.549 10.5203C165.113 10.065 164.895 9.52435 164.895 8.89834Z" fill="url(#paint2_linear_1954_65)"/>
<path d="M169.841 12.3983H174.394L177.354 20.8494C177.619 21.5703 177.828 22.3576 177.98 23.2112C178.131 22.3576 178.34 21.5703 178.606 20.8494L181.565 12.3983H186.032L179.886 27.1949H176.016L169.841 12.3983Z" fill="url(#paint3_linear_1954_65)"/>
<path d="M192.886 27.5648C191.387 27.5648 190.059 27.2234 188.902 26.5405C187.745 25.8386 186.844 24.8995 186.199 23.7234C185.554 22.5473 185.232 21.2478 185.232 19.8251C185.232 18.4213 185.564 17.1218 186.228 15.9267C186.891 14.7316 187.802 13.7831 188.959 13.0812C190.135 12.3793 191.444 12.0284 192.886 12.0284C194.328 12.0284 195.618 12.3793 196.756 13.0812C197.913 13.7831 198.805 14.7316 199.431 15.9267C200.076 17.1029 200.398 18.4023 200.398 19.8251C200.398 20.2993 200.36 20.7546 200.284 21.1909H189.215C189.443 22.0825 189.87 22.8034 190.496 23.3535C191.141 23.8847 191.938 24.1502 192.886 24.1502C193.683 24.1502 194.394 23.97 195.02 23.6096C195.646 23.2302 196.139 22.7465 196.5 22.1584L199.488 24.4063C198.881 25.3548 197.989 26.1231 196.813 26.7112C195.637 27.2803 194.328 27.5648 192.886 27.5648ZM196.528 18.317C196.301 17.4633 195.855 16.7519 195.191 16.1828C194.527 15.6137 193.74 15.3292 192.829 15.3292C191.938 15.3292 191.16 15.6042 190.496 16.1544C189.851 16.7045 189.424 17.4254 189.215 18.317H196.528Z" fill="url(#paint4_linear_1954_65)"/>
<path d="M44.9968 10.5756H38.8652V6.71271H55.4206V10.5756H49.289V28.1733H44.9968V10.5756Z" fill="white"/>
<path d="M52.4376 12.2311H57.2816L59.3357 21.2753C59.5605 22.195 59.724 23.0023 59.8262 23.6972C59.9693 22.8184 60.143 22.0008 60.3474 21.2446L62.6774 12.2311H67.4294L69.9127 21.2446C70.1171 22.0008 70.2908 22.8184 70.4339 23.6972C70.5361 23.0023 70.6996 22.195 70.9244 21.2753L73.1318 12.2311H77.6385L72.6719 28.1733H68.1958L65.5899 19.0985C65.3446 18.3627 65.1607 17.5656 65.0381 16.7072C64.895 17.6474 64.7315 18.4445 64.5475 19.0985L62.1562 28.1733H57.4042L52.4376 12.2311Z" fill="white"/>
<path d="M85.0405 28.5719C83.6098 28.5719 82.2915 28.204 81.0856 27.4682C79.8797 26.7119 78.9191 25.7002 78.2038 24.433C77.5088 23.1658 77.1614 21.776 77.1614 20.2635C77.1614 18.7511 77.5088 17.3613 78.2038 16.0941C78.9191 14.8064 79.8797 13.7845 81.0856 13.0283C82.2915 12.272 83.6098 11.8939 85.0405 11.8939C86.3486 11.8939 87.4011 12.1392 88.1983 12.6297C89.0158 13.1202 89.6494 13.8254 90.0991 14.7451V12.2311H94.2072V28.1733H90.191V25.5674C89.7209 26.528 89.0771 27.274 88.2596 27.8054C87.4625 28.3164 86.3894 28.5719 85.0405 28.5719ZM81.3002 20.2329C81.3002 21.0504 81.4842 21.8169 81.8521 22.5322C82.2404 23.2271 82.7616 23.7892 83.4156 24.2184C84.0901 24.6272 84.8565 24.8316 85.715 24.8316C86.5938 24.8316 87.3705 24.6272 88.045 24.2184C88.7399 23.8097 89.2713 23.2578 89.6392 22.5629C90.0071 21.868 90.191 21.1015 90.191 20.2635C90.191 19.4256 90.0071 18.6591 89.6392 17.9642C89.2713 17.2488 88.7399 16.6868 88.045 16.278C87.3705 15.8488 86.5938 15.6342 85.715 15.6342C84.8565 15.6342 84.0901 15.8488 83.4156 16.278C82.7411 16.6868 82.22 17.2386 81.8521 17.9335C81.4842 18.6284 81.3002 19.3949 81.3002 20.2329Z" fill="white"/>
<path d="M100.805 20.6008V28.1733H96.6663V5.79297H100.805V18.6693L106.783 12.2311H112.67L105.159 19.6504L112.7 28.1733H107.213L100.805 20.6008Z" fill="white"/>
<path d="M119.39 28.5719C117.775 28.5719 116.344 28.204 115.098 27.4682C113.851 26.7119 112.88 25.7002 112.185 24.433C111.49 23.1658 111.143 21.7658 111.143 20.2329C111.143 18.7204 111.5 17.3204 112.216 16.0327C112.931 14.7451 113.912 13.7232 115.159 12.9669C116.426 12.2107 117.836 11.8326 119.39 11.8326C120.943 11.8326 122.333 12.2107 123.559 12.9669C124.806 13.7232 125.767 14.7451 126.441 16.0327C127.136 17.2999 127.483 18.7 127.483 20.2329C127.483 20.7438 127.442 21.2344 127.361 21.7045H115.435C115.68 22.6651 116.14 23.4418 116.814 24.0345C117.509 24.6068 118.368 24.8929 119.39 24.8929C120.248 24.8929 121.015 24.6987 121.689 24.3104C122.363 23.9016 122.895 23.3804 123.283 22.7468L126.502 25.1688C125.848 26.1908 124.888 27.0185 123.62 27.6521C122.353 28.2653 120.943 28.5719 119.39 28.5719ZM123.314 18.608C123.069 17.6883 122.588 16.9218 121.873 16.3087C121.158 15.6955 120.309 15.3889 119.328 15.3889C118.368 15.3889 117.53 15.6853 116.814 16.278C116.119 16.8707 115.66 17.6474 115.435 18.608H123.314Z" fill="white"/>
<rect y="0.5" width="34" height="34" rx="11.0768" fill="white"/>
<rect y="0.5" width="34" height="34" rx="11.0768" fill="url(#paint5_linear_1954_65)"/>
<g filter="url(#filter0_d_1954_65)">
<path fill-rule="evenodd" clip-rule="evenodd" d="M16.9916 19.8342C16.9916 19.742 16.9893 19.6498 16.9848 19.5577C16.9803 19.4656 16.9735 19.3736 16.9645 19.2819C16.9554 19.1901 16.9442 19.0986 16.9306 19.0074C16.9171 18.9162 16.9013 18.8253 16.8833 18.7349C16.8654 18.6444 16.8451 18.5545 16.8227 18.465C16.8004 18.3755 16.7757 18.2867 16.749 18.1985C16.7222 18.1102 16.6933 18.0227 16.6622 17.9358C16.6311 17.849 16.598 17.7629 16.5626 17.6778C16.5274 17.5926 16.49 17.5083 16.4506 17.4249C16.4112 17.3415 16.3697 17.2592 16.3263 17.1779C16.2828 17.0965 16.2373 17.0163 16.1899 16.9372C16.1425 16.8581 16.0932 16.7803 16.042 16.7036C15.9907 16.6268 15.9376 16.5515 15.8827 16.4775C15.8277 16.4034 15.771 16.3307 15.7125 16.2594C15.654 16.1881 15.5938 16.1183 15.5318 16.05C15.4699 15.9817 15.4064 15.9149 15.3412 15.8496C15.2759 15.7845 15.2092 15.7209 15.1409 15.659C15.0725 15.597 15.0027 15.5368 14.9314 15.4783C14.8602 15.4198 14.7875 15.3631 14.7134 15.3081C14.6393 15.2532 14.564 15.2001 14.4872 15.1489C14.4105 15.0976 14.3327 15.0483 14.2536 15.0009C14.1745 14.9535 14.0943 14.9081 14.0129 14.8646C13.9316 14.8211 13.8493 14.7796 13.7659 14.7403C13.6825 14.7008 13.5982 14.6635 13.5131 14.6282C13.4279 14.5929 13.3418 14.5597 13.255 14.5286C13.1681 14.4975 13.0807 14.4686 12.9924 14.4419C12.9042 14.4151 12.8153 14.3905 12.7258 14.3681C12.6364 14.3457 12.5464 14.3255 12.4559 14.3075C12.3655 14.2895 12.2747 14.2738 12.1834 14.2602C12.0922 14.2467 12.0007 14.2354 11.909 14.2263C11.8172 14.2173 11.7252 14.2105 11.6332 14.206C11.541 14.2015 11.4488 14.1992 11.3566 14.1992C11.2644 14.1992 11.1723 14.2015 11.0801 14.206C10.988 14.2105 10.8961 14.2173 10.8043 14.2263C10.7125 14.2354 10.621 14.2467 10.5298 14.2602C10.4386 14.2738 10.3478 14.2895 10.2573 14.3075C10.1669 14.3255 10.0769 14.3457 9.98746 14.3681C9.898 14.3905 9.80914 14.4151 9.7209 14.4419C9.63265 14.4686 9.54511 14.4975 9.45828 14.5286C9.37145 14.5597 9.28543 14.5929 9.20023 14.6282C9.11503 14.6635 9.03075 14.7008 8.94738 14.7403C8.86402 14.7796 8.78167 14.8211 8.70034 14.8646C8.61901 14.9081 8.53879 14.9535 8.45969 15.0009C8.38059 15.0483 8.3027 15.0976 8.22603 15.1489C8.14934 15.2001 8.07397 15.2532 7.99989 15.3081C7.92582 15.3631 7.85314 15.4198 7.78185 15.4783C7.71057 15.5368 7.64076 15.597 7.57242 15.659C7.5041 15.7209 7.43734 15.7845 7.37213 15.8496C7.30691 15.9149 7.24334 15.9817 7.18141 16.05C7.11948 16.1183 7.05927 16.1881 7.00076 16.2594C6.94226 16.3307 6.88553 16.4034 6.8306 16.4775C6.77566 16.5515 6.72258 16.6268 6.67135 16.7036C6.62011 16.7803 6.57078 16.8581 6.52337 16.9372C6.47596 17.0163 6.43052 17.0965 6.38705 17.1779C6.34358 17.2592 6.30213 17.3415 6.2627 17.4249C6.22327 17.5083 6.18591 17.5926 6.15061 17.6778C6.11532 17.7629 6.08214 17.849 6.05107 17.9358C6.02001 18.0227 5.99109 18.1102 5.96432 18.1985C5.93755 18.2867 5.91296 18.3755 5.89055 18.465C5.86814 18.5545 5.84794 18.6444 5.82995 18.7349C5.81196 18.8253 5.7962 18.9162 5.78267 19.0074C5.76914 19.0986 5.75786 19.1901 5.74881 19.2819C5.73977 19.3736 5.73299 19.4656 5.72847 19.5577C5.72394 19.6498 5.72168 19.742 5.72168 19.8342C5.72168 19.9264 5.72394 20.0186 5.72847 20.1107C5.73299 20.2028 5.73977 20.2947 5.74881 20.3865C5.75786 20.4783 5.76914 20.5698 5.78267 20.661C5.7962 20.7522 5.81196 20.843 5.82995 20.9335C5.84794 21.024 5.86814 21.1139 5.89055 21.2034C5.91296 21.2928 5.93755 21.3817 5.96432 21.4699C5.99109 21.5582 6.02001 21.6457 6.05107 21.7325C6.08214 21.8194 6.11532 21.9054 6.15061 21.9906C6.18591 22.0758 6.22327 22.1601 6.2627 22.2434C6.30213 22.3268 6.34358 22.4092 6.38705 22.4905C6.43052 22.5718 6.47596 22.6521 6.52337 22.7311C6.57078 22.8102 6.62011 22.8881 6.67135 22.9648C6.72258 23.0415 6.77566 23.1169 6.8306 23.1909C6.88553 23.265 6.94226 23.3377 7.00076 23.409C7.05927 23.4802 7.11948 23.5501 7.18141 23.6184C7.24334 23.6867 7.30691 23.7535 7.37213 23.8187C7.43734 23.8839 7.5041 23.9475 7.57242 24.0094C7.64076 24.0713 7.71057 24.1315 7.78185 24.19C7.85314 24.2485 7.92582 24.3053 7.99989 24.3602C8.07397 24.4151 8.14934 24.4682 8.22603 24.5195C8.3027 24.5707 8.38059 24.6201 8.45969 24.6674C8.53879 24.7148 8.61901 24.7603 8.70034 24.8038C8.78167 24.8472 8.86402 24.8887 8.94738 24.9281C9.03075 24.9676 9.11503 25.0049 9.20023 25.0402C9.28543 25.0755 9.37145 25.1087 9.45828 25.1397C9.54511 25.1708 9.63265 25.1997 9.7209 25.2265C9.80914 25.2532 9.898 25.2779 9.98746 25.3003C10.0769 25.3227 10.1669 25.3429 10.2573 25.3609C10.3478 25.3788 10.4386 25.3946 10.5298 25.4081C10.621 25.4217 10.7125 25.433 10.8043 25.442C10.8961 25.451 10.988 25.4579 11.0801 25.4624C11.1723 25.4669 11.2644 25.4692 11.3566 25.4692H20.3726V19.8342H16.9916Z" fill="white"/>
<path d="M20.3714 25.4693C24.7283 25.4693 28.2604 21.9373 28.2604 17.5803C28.2604 13.2234 24.7283 9.69141 20.3714 9.69141C16.0145 9.69141 12.4824 13.2234 12.4824 17.5803C12.4824 21.9373 16.0145 25.4693 20.3714 25.4693Z" fill="white"/>
</g>
<defs>
<filter id="filter0_d_1954_65" x="4.01135" y="8.32314" width="25.9597" height="19.198" filterUnits="userSpaceOnUse" color-interpolation-filters="sRGB">
<feFlood flood-opacity="0" result="BackgroundImageFix"/>
<feColorMatrix in="SourceAlpha" type="matrix" values="0 0 0 0 0 0 0 0 0 0 0 0 0 0 0 0 0 0 127 0" result="hardAlpha"/>
<feOffset dy="0.342067"/>
<feGaussianBlur stdDeviation="0.855167"/>
<feComposite in2="hardAlpha" operator="out"/>
<feColorMatrix type="matrix" values="0 0 0 0 0 0 0 0 0 0 0 0 0 0 0 0 0 0 0.1 0"/>
<feBlend mode="normal" in2="BackgroundImageFix" result="effect1_dropShadow_1954_65"/>
<feBlend mode="normal" in="SourceGraphic" in2="effect1_dropShadow_1954_65" result="shape"/>
</filter>
<linearGradient id="paint0_linear_1954_65" x1="165.988" y1="1.34836" x2="165.988" y2="30.1675" gradientUnits="userSpaceOnUse">
<stop stop-color="#FF6372"/>
<stop offset="1" stop-color="#FF3347"/>
</linearGradient>
<linearGradient id="paint1_linear_1954_65" x1="165.988" y1="1.34836" x2="165.988" y2="30.1675" gradientUnits="userSpaceOnUse">
<stop stop-color="#FF6372"/>
<stop offset="1" stop-color="#FF3347"/>
</linearGradient>
<linearGradient id="paint2_linear_1954_65" x1="165.988" y1="1.34836" x2="165.988" y2="30.1675" gradientUnits="userSpaceOnUse">
<stop stop-color="#FF6372"/>
<stop offset="1" stop-color="#FF3347"/>
</linearGradient>
<linearGradient id="paint3_linear_1954_65" x1="165.988" y1="1.34836" x2="165.988" y2="30.1675" gradientUnits="userSpaceOnUse">
<stop stop-color="#FF6372"/>
<stop offset="1" stop-color="#FF3347"/>
</linearGradient>
<linearGradient id="paint4_linear_1954_65" x1="165.988" y1="1.34836" x2="165.988" y2="30.1675" gradientUnits="userSpaceOnUse">
<stop stop-color="#FF6372"/>
<stop offset="1" stop-color="#FF3347"/>
</linearGradient>
<linearGradient id="paint5_linear_1954_65" x1="3.7276" y1="31.2744" x2="40.8302" y2="-5.91494" gradientUnits="userSpaceOnUse">
<stop offset="0.248154" stop-color="#FF4759"/>
<stop offset="1" stop-color="#FFD600"/>
</linearGradient>
</defs>
</svg>
