<svg width="202" height="35" viewBox="0 0 202 35" fill="none" xmlns="http://www.w3.org/2000/svg">
<path d="M136.539 7.2764H143.652C145.891 7.2764 147.769 7.70323 149.286 8.55688C150.823 9.41053 151.971 10.5867 152.729 12.0853C153.488 13.5839 153.868 15.3102 153.868 17.2641C153.868 19.1991 153.488 20.9158 152.729 22.4145C151.971 23.9131 150.823 25.0892 149.286 25.9429C147.769 26.7776 145.891 27.1949 143.652 27.1949H136.539V7.2764ZM143.169 23.6096C145.407 23.6096 147.057 23.0405 148.12 21.9023C149.201 20.7451 149.742 19.1991 149.742 17.2641C149.742 15.3292 149.201 13.7831 148.12 12.6259C147.057 11.4498 145.407 10.8617 143.169 10.8617H140.522V23.6096H143.169Z" fill="url(#paint0_linear_1887_498)"/>
<path d="M155.706 12.3983H159.433V15.2154C159.699 14.1341 160.211 13.3184 160.97 12.7682C161.748 12.2181 162.763 11.981 164.015 12.0568V15.6706H163.474C162.336 15.6706 161.397 16.0311 160.657 16.7519C159.917 17.4538 159.547 18.4118 159.547 19.6259V27.1949H155.706V12.3983Z" fill="url(#paint1_linear_1887_498)"/>
<path d="M165.293 12.3983H169.134V27.1949H165.293V12.3983ZM164.894 8.89834C164.894 8.27233 165.112 7.74117 165.549 7.30486C166.004 6.86855 166.554 6.65039 167.199 6.65039C167.863 6.65039 168.413 6.86855 168.849 7.30486C169.286 7.74117 169.504 8.27233 169.504 8.89834C169.504 9.54332 169.286 10.084 168.849 10.5203C168.413 10.9566 167.863 11.1747 167.199 11.1747C166.554 11.1747 166.004 10.9566 165.549 10.5203C165.112 10.065 164.894 9.52435 164.894 8.89834Z" fill="url(#paint2_linear_1887_498)"/>
<path d="M169.841 12.3983H174.394L177.353 20.8494C177.619 21.5703 177.827 22.3576 177.979 23.2112C178.131 22.3576 178.34 21.5703 178.605 20.8494L181.564 12.3983H186.032L179.886 27.1949H176.016L169.841 12.3983Z" fill="url(#paint3_linear_1887_498)"/>
<path d="M192.886 27.5648C191.387 27.5648 190.059 27.2234 188.902 26.5405C187.745 25.8386 186.844 24.8995 186.199 23.7234C185.554 22.5473 185.231 21.2478 185.231 19.8251C185.231 18.4213 185.563 17.1218 186.227 15.9267C186.891 14.7316 187.802 13.7831 188.959 13.0812C190.135 12.3793 191.444 12.0284 192.886 12.0284C194.327 12.0284 195.617 12.3793 196.755 13.0812C197.913 13.7831 198.804 14.7316 199.43 15.9267C200.075 17.1029 200.398 18.4023 200.398 19.8251C200.398 20.2993 200.36 20.7546 200.284 21.1909H189.215C189.442 22.0825 189.869 22.8034 190.495 23.3535C191.14 23.8847 191.937 24.1502 192.886 24.1502C193.682 24.1502 194.394 23.97 195.02 23.6096C195.646 23.2302 196.139 22.7465 196.499 22.1584L199.487 24.4063C198.88 25.3548 197.988 26.1231 196.812 26.7112C195.636 27.2803 194.327 27.5648 192.886 27.5648ZM196.528 18.317C196.3 17.4633 195.854 16.7519 195.19 16.1828C194.526 15.6137 193.739 15.3292 192.829 15.3292C191.937 15.3292 191.159 15.6042 190.495 16.1544C189.85 16.7045 189.423 17.4254 189.215 18.317H196.528Z" fill="url(#paint4_linear_1887_498)"/>
<path d="M44.9963 10.5756H38.8647V6.71271H55.4201V10.5756H49.2885V28.1733H44.9963V10.5756Z" fill="black"/>
<path d="M52.4371 12.2311H57.2811L59.3352 21.2753C59.56 22.195 59.7235 23.0023 59.8257 23.6972C59.9688 22.8184 60.1425 22.0008 60.3469 21.2446L62.6769 12.2311H67.4289L69.9122 21.2446C70.1166 22.0008 70.2903 22.8184 70.4334 23.6972C70.5356 23.0023 70.6991 22.195 70.9239 21.2753L73.1313 12.2311H77.638L72.6714 28.1733H68.1953L65.5894 19.0985C65.3442 18.3627 65.1602 17.5656 65.0376 16.7072C64.8945 17.6474 64.731 18.4445 64.547 19.0985L62.1557 28.1733H57.4037L52.4371 12.2311Z" fill="black"/>
<path d="M85.04 28.5719C83.6093 28.5719 82.291 28.204 81.0851 27.4682C79.8792 26.7119 78.9186 25.7002 78.2033 24.433C77.5084 23.1658 77.1609 21.776 77.1609 20.2635C77.1609 18.7511 77.5084 17.3613 78.2033 16.0941C78.9186 14.8064 79.8792 13.7845 81.0851 13.0283C82.291 12.272 83.6093 11.8939 85.04 11.8939C86.3481 11.8939 87.4007 12.1392 88.1978 12.6297C89.0153 13.1202 89.6489 13.8254 90.0986 14.7451V12.2311H94.2067V28.1733H90.1905V25.5674C89.7205 26.528 89.0766 27.274 88.2591 27.8054C87.462 28.3164 86.389 28.5719 85.04 28.5719ZM81.2997 20.2329C81.2997 21.0504 81.4837 21.8169 81.8516 22.5322C82.2399 23.2271 82.7611 23.7892 83.4151 24.2184C84.0896 24.6272 84.856 24.8316 85.7145 24.8316C86.5933 24.8316 87.37 24.6272 88.0445 24.2184C88.7394 23.8097 89.2708 23.2578 89.6387 22.5629C90.0066 21.868 90.1905 21.1015 90.1905 20.2635C90.1905 19.4256 90.0066 18.6591 89.6387 17.9642C89.2708 17.2488 88.7394 16.6868 88.0445 16.278C87.37 15.8488 86.5933 15.6342 85.7145 15.6342C84.856 15.6342 84.0896 15.8488 83.4151 16.278C82.7406 16.6868 82.2195 17.2386 81.8516 17.9335C81.4837 18.6284 81.2997 19.3949 81.2997 20.2329Z" fill="black"/>
<path d="M100.805 20.6008V28.1733H96.6658V5.79297H100.805V18.6693L106.783 12.2311H112.669L105.158 19.6504L112.7 28.1733H107.212L100.805 20.6008Z" fill="black"/>
<path d="M119.389 28.5719C117.775 28.5719 116.344 28.204 115.097 27.4682C113.85 26.7119 112.879 25.7002 112.185 24.433C111.49 23.1658 111.142 21.7658 111.142 20.2329C111.142 18.7204 111.5 17.3204 112.215 16.0327C112.931 14.7451 113.912 13.7232 115.158 12.9669C116.426 12.2107 117.836 11.8326 119.389 11.8326C120.943 11.8326 122.332 12.2107 123.559 12.9669C124.805 13.7232 125.766 14.7451 126.441 16.0327C127.135 17.2999 127.483 18.7 127.483 20.2329C127.483 20.7438 127.442 21.2344 127.36 21.7045H115.434C115.68 22.6651 116.139 23.4418 116.814 24.0345C117.509 24.6068 118.367 24.8929 119.389 24.8929C120.248 24.8929 121.014 24.6987 121.689 24.3104C122.363 23.9016 122.894 23.3804 123.283 22.7468L126.502 25.1688C125.848 26.1908 124.887 27.0185 123.62 27.6521C122.353 28.2653 120.943 28.5719 119.389 28.5719ZM123.313 18.608C123.068 17.6883 122.588 16.9218 121.872 16.3087C121.157 15.6955 120.309 15.3889 119.328 15.3889C118.367 15.3889 117.529 15.6853 116.814 16.278C116.119 16.8707 115.659 17.6474 115.434 18.608H123.313Z" fill="black"/>
<rect y="0.5" width="34" height="34" rx="11.0768" fill="white"/>
<rect y="0.5" width="34" height="34" rx="11.0768" fill="url(#paint5_linear_1887_498)"/>
<g filter="url(#filter0_d_1887_498)">
<path fill-rule="evenodd" clip-rule="evenodd" d="M16.9921 19.8342C16.9921 19.742 16.9898 19.6498 16.9853 19.5577C16.9808 19.4656 16.974 19.3736 16.9649 19.2819C16.9559 19.1901 16.9446 19.0986 16.9311 19.0074C16.9176 18.9162 16.9018 18.8253 16.8838 18.7349C16.8658 18.6444 16.8456 18.5545 16.8232 18.465C16.8008 18.3755 16.7762 18.2867 16.7495 18.1985C16.7227 18.1102 16.6938 18.0227 16.6627 17.9358C16.6316 17.849 16.5985 17.7629 16.5631 17.6778C16.5279 17.5926 16.4905 17.5083 16.4511 17.4249C16.4117 17.3415 16.3702 17.2592 16.3267 17.1779C16.2833 17.0965 16.2378 17.0163 16.1904 16.9372C16.143 16.8581 16.0937 16.7803 16.0425 16.7036C15.9912 16.6268 15.9381 16.5515 15.8832 16.4775C15.8282 16.4034 15.7715 16.3307 15.713 16.2594C15.6545 16.1881 15.5943 16.1183 15.5323 16.05C15.4704 15.9817 15.4069 15.9149 15.3416 15.8496C15.2764 15.7845 15.2097 15.7209 15.1414 15.659C15.073 15.597 15.0032 15.5368 14.9319 15.4783C14.8606 15.4198 14.788 15.3631 14.7139 15.3081C14.6398 15.2532 14.5644 15.2001 14.4877 15.1489C14.411 15.0976 14.3332 15.0483 14.2541 15.0009C14.1749 14.9535 14.0948 14.9081 14.0134 14.8646C13.9321 14.8211 13.8498 14.7796 13.7664 14.7403C13.683 14.7008 13.5987 14.6635 13.5136 14.6282C13.4283 14.5929 13.3423 14.5597 13.2555 14.5286C13.1686 14.4975 13.0811 14.4686 12.9929 14.4419C12.9046 14.4151 12.8158 14.3905 12.7263 14.3681C12.6369 14.3457 12.5469 14.3255 12.4564 14.3075C12.366 14.2895 12.2752 14.2738 12.1839 14.2602C12.0927 14.2467 12.0012 14.2354 11.9095 14.2263C11.8177 14.2173 11.7257 14.2105 11.6337 14.206C11.5415 14.2015 11.4493 14.1992 11.3571 14.1992C11.2649 14.1992 11.1727 14.2015 11.0806 14.206C10.9885 14.2105 10.8966 14.2173 10.8048 14.2263C10.713 14.2354 10.6215 14.2467 10.5303 14.2602C10.4391 14.2738 10.3482 14.2895 10.2578 14.3075C10.1674 14.3255 10.0774 14.3457 9.98795 14.3681C9.89849 14.3905 9.80963 14.4151 9.72139 14.4419C9.63314 14.4686 9.5456 14.4975 9.45877 14.5286C9.37194 14.5597 9.28592 14.5929 9.20072 14.6282C9.11552 14.6635 9.03124 14.7008 8.94787 14.7403C8.86451 14.7796 8.78216 14.8211 8.70083 14.8646C8.6195 14.9081 8.53928 14.9535 8.46018 15.0009C8.38108 15.0483 8.30319 15.0976 8.22652 15.1489C8.14983 15.2001 8.07446 15.2532 8.00038 15.3081C7.92631 15.3631 7.85363 15.4198 7.78234 15.4783C7.71106 15.5368 7.64125 15.597 7.57291 15.659C7.50459 15.7209 7.43782 15.7845 7.37262 15.8496C7.3074 15.9149 7.24383 15.9817 7.1819 16.05C7.11997 16.1183 7.05976 16.1881 7.00125 16.2594C6.94275 16.3307 6.88602 16.4034 6.83109 16.4775C6.77615 16.5515 6.72306 16.6268 6.67183 16.7036C6.6206 16.7803 6.57127 16.8581 6.52386 16.9372C6.47645 17.0163 6.43101 17.0965 6.38753 17.1779C6.34407 17.2592 6.30261 17.3415 6.26318 17.4249C6.22376 17.5083 6.18639 17.5926 6.1511 17.6778C6.11581 17.7629 6.08263 17.849 6.05156 17.9358C6.0205 18.0227 5.99158 18.1102 5.96481 18.1985C5.93804 18.2867 5.91345 18.3755 5.89104 18.465C5.86863 18.5545 5.84843 18.6444 5.83044 18.7349C5.81245 18.8253 5.79669 18.9162 5.78316 19.0074C5.76962 19.0986 5.75834 19.1901 5.7493 19.2819C5.74026 19.3736 5.73348 19.4656 5.72896 19.5577C5.72443 19.6498 5.72217 19.742 5.72217 19.8342C5.72217 19.9264 5.72443 20.0186 5.72896 20.1107C5.73348 20.2028 5.74026 20.2947 5.7493 20.3865C5.75834 20.4783 5.76962 20.5698 5.78316 20.661C5.79669 20.7522 5.81245 20.843 5.83044 20.9335C5.84843 21.024 5.86863 21.1139 5.89104 21.2034C5.91345 21.2928 5.93804 21.3817 5.96481 21.4699C5.99158 21.5582 6.0205 21.6457 6.05156 21.7325C6.08263 21.8194 6.11581 21.9054 6.1511 21.9906C6.18639 22.0758 6.22376 22.1601 6.26318 22.2434C6.30261 22.3268 6.34407 22.4092 6.38753 22.4905C6.43101 22.5718 6.47645 22.6521 6.52386 22.7311C6.57127 22.8102 6.6206 22.8881 6.67183 22.9648C6.72306 23.0415 6.77615 23.1169 6.83109 23.1909C6.88602 23.265 6.94275 23.3377 7.00125 23.409C7.05976 23.4802 7.11997 23.5501 7.1819 23.6184C7.24383 23.6867 7.3074 23.7535 7.37262 23.8187C7.43782 23.8839 7.50459 23.9475 7.57291 24.0094C7.64125 24.0713 7.71106 24.1315 7.78234 24.19C7.85363 24.2485 7.92631 24.3053 8.00038 24.3602C8.07446 24.4151 8.14983 24.4682 8.22652 24.5195C8.30319 24.5707 8.38108 24.6201 8.46018 24.6674C8.53928 24.7148 8.6195 24.7603 8.70083 24.8038C8.78216 24.8472 8.86451 24.8887 8.94787 24.9281C9.03124 24.9676 9.11552 25.0049 9.20072 25.0402C9.28592 25.0755 9.37194 25.1087 9.45877 25.1397C9.5456 25.1708 9.63314 25.1997 9.72139 25.2265C9.80963 25.2532 9.89849 25.2779 9.98795 25.3003C10.0774 25.3227 10.1674 25.3429 10.2578 25.3609C10.3482 25.3788 10.4391 25.3946 10.5303 25.4081C10.6215 25.4217 10.713 25.433 10.8048 25.442C10.8966 25.451 10.9885 25.4579 11.0806 25.4624C11.1727 25.4669 11.2649 25.4692 11.3571 25.4692H20.3731V19.8342H16.9921Z" fill="white"/>
<path d="M20.3718 25.4693C24.7288 25.4693 28.2609 21.9373 28.2609 17.5803C28.2609 13.2234 24.7288 9.69141 20.3718 9.69141C16.0149 9.69141 12.4829 13.2234 12.4829 17.5803C12.4829 21.9373 16.0149 25.4693 20.3718 25.4693Z" fill="white"/>
</g>
<defs>
<filter id="filter0_d_1887_498" x="4.01183" y="8.32314" width="25.9592" height="19.198" filterUnits="userSpaceOnUse" color-interpolation-filters="sRGB">
<feFlood flood-opacity="0" result="BackgroundImageFix"/>
<feColorMatrix in="SourceAlpha" type="matrix" values="0 0 0 0 0 0 0 0 0 0 0 0 0 0 0 0 0 0 127 0" result="hardAlpha"/>
<feOffset dy="0.342067"/>
<feGaussianBlur stdDeviation="0.855167"/>
<feComposite in2="hardAlpha" operator="out"/>
<feColorMatrix type="matrix" values="0 0 0 0 0 0 0 0 0 0 0 0 0 0 0 0 0 0 0.1 0"/>
<feBlend mode="normal" in2="BackgroundImageFix" result="effect1_dropShadow_1887_498"/>
<feBlend mode="normal" in="SourceGraphic" in2="effect1_dropShadow_1887_498" result="shape"/>
</filter>
<linearGradient id="paint0_linear_1887_498" x1="165.987" y1="1.34836" x2="165.987" y2="30.1675" gradientUnits="userSpaceOnUse">
<stop stop-color="#FF6372"/>
<stop offset="1" stop-color="#FF3347"/>
</linearGradient>
<linearGradient id="paint1_linear_1887_498" x1="165.987" y1="1.34836" x2="165.987" y2="30.1675" gradientUnits="userSpaceOnUse">
<stop stop-color="#FF6372"/>
<stop offset="1" stop-color="#FF3347"/>
</linearGradient>
<linearGradient id="paint2_linear_1887_498" x1="165.987" y1="1.34836" x2="165.987" y2="30.1675" gradientUnits="userSpaceOnUse">
<stop stop-color="#FF6372"/>
<stop offset="1" stop-color="#FF3347"/>
</linearGradient>
<linearGradient id="paint3_linear_1887_498" x1="165.987" y1="1.34836" x2="165.987" y2="30.1675" gradientUnits="userSpaceOnUse">
<stop stop-color="#FF6372"/>
<stop offset="1" stop-color="#FF3347"/>
</linearGradient>
<linearGradient id="paint4_linear_1887_498" x1="165.987" y1="1.34836" x2="165.987" y2="30.1675" gradientUnits="userSpaceOnUse">
<stop stop-color="#FF6372"/>
<stop offset="1" stop-color="#FF3347"/>
</linearGradient>
<linearGradient id="paint5_linear_1887_498" x1="3.7276" y1="31.2744" x2="40.8302" y2="-5.91494" gradientUnits="userSpaceOnUse">
<stop offset="0.248154" stop-color="#FF4759"/>
<stop offset="1" stop-color="#FFD600"/>
</linearGradient>
</defs>
</svg>
